<svg xmlns="http://www.w3.org/2000/svg" viewBox="0 0 64 80" x="0px" y="0px"><title>robot-maid-home-science-clean-electronic</title><g data-name="16-robot maid"><path d="M35,18a4,4,0,0,0,0-8H29a4,4,0,0,0,0,8Zm-8-4a2,2,0,0,1,2-2h6a2,2,0,0,1,0,4H29A2,2,0,0,1,27,14Z"/><circle cx="29.995" cy="13.995" r="1.005"/><circle cx="33.995" cy="13.995" r="1.005"/><path d="M38,33H26a4,4,0,0,0,0,8H38a4,4,0,0,0,0-8Zm0,6H26a2,2,0,0,1,0-4H38a2,2,0,0,1,0,4Z"/><path d="M63.035,9.972A2.6,2.6,0,0,0,61,9a1,1,0,0,0-.707.293l-1.019,1.019L58.9,9.553A1,1,0,0,0,58,9H52a2.617,2.617,0,0,0-2.559,3.165L52.02,24.2A3.983,3.983,0,0,0,54,27.444v9.7L50.979,31.7c0-.069.021-.134.021-.2A4.505,4.505,0,0,0,46.5,27H40v.008c-.053,0-.1-.008-.158-.008H36V26h1.715A4.29,4.29,0,0,0,42,21.715V15a9.938,9.938,0,0,0-2.019-6H40V8a5.008,5.008,0,0,0-4.106-4.92,4,4,0,0,0-7.788,0A5.008,5.008,0,0,0,24,8V9h.019A9.938,9.938,0,0,0,22,15v6.715A4.29,4.29,0,0,0,26.285,26H28v1H24.158c-.053,0-.105.007-.158.008V27H17.5A4.505,4.505,0,0,0,13,31.5c0,.065.017.126.019.191L7.212,41.37A5.464,5.464,0,0,0,4.023,46H2.5a2.5,2.5,0,0,0-1.393,4.575L3.623,61.348A3.374,3.374,0,0,0,6.9,64H11.1a3.368,3.368,0,0,0,3.277-2.635l2.52-10.79A2.5,2.5,0,0,0,15.5,46H13.977a5.8,5.8,0,0,0-.953-2.751L17,36.887v.955a7.162,7.162,0,0,0,7,7.15v4.925l-.036.212a31.48,31.48,0,0,1-3.112,8.8A8.1,8.1,0,0,0,20,62.532V63a1,1,0,0,0,1,1H43a1,1,0,0,0,1-1,8.04,8.04,0,0,0-1.409-4.555,20.339,20.339,0,0,1-3.237-6.991L39,49.887V45h.842A7.166,7.166,0,0,0,47,37.842V36.8l6.588,9.882A2.954,2.954,0,0,0,59,45.046v-17.6A3.983,3.983,0,0,0,60.98,24.2l2.579-12.033A2.6,2.6,0,0,0,63.035,9.972ZM57,26H56a2,2,0,0,1-1.731-1h4.462A2,2,0,0,1,57,26ZM46.5,29a2.5,2.5,0,0,1,.49,4.951A7.134,7.134,0,0,0,44.792,29ZM38,29a1,1,0,0,1-2,0ZM29,5a1,1,0,0,0,1-1,2,2,0,0,1,4,0,1,1,0,0,0,1,1,3.005,3.005,0,0,1,2.768,1.845,9.939,9.939,0,0,0-11.536,0A3.005,3.005,0,0,1,29,5ZM24,21.715V15a8,8,0,0,1,16,0v6.715A2.288,2.288,0,0,1,37.715,24H36a4,4,0,0,0-8,0H26.285A2.288,2.288,0,0,1,24,21.715ZM34,24H30a2,2,0,0,1,4,0Zm-4,2h4v1H30Zm3,3a1,1,0,0,1-2,0Zm-5,0a1,1,0,0,1-2,0ZM17.5,29h1.708a7.134,7.134,0,0,0-2.2,4.951A2.5,2.5,0,0,1,17.5,29Zm-2,6.511-3.927,6.283a4.687,4.687,0,0,0-1.848-.729l4.151-6.919A4.511,4.511,0,0,0,15.5,35.511Zm-3.08,25.417A1.365,1.365,0,0,1,11.1,62H6.9a1.37,1.37,0,0,1-1.33-1.09L3.261,51H14.739ZM16,48.5a.5.5,0,0,1-.5.5H2.5a.5.5,0,0,1,0-1h13A.5.5,0,0,1,16,48.5ZM6.043,46A3.191,3.191,0,0,1,9,43a3.191,3.191,0,0,1,2.957,3Zm34.9,13.574A6.083,6.083,0,0,1,41.918,62H22.023a6.1,6.1,0,0,1,.618-2.18A34.22,34.22,0,0,0,25.831,51H37.2l.2.9A22.33,22.33,0,0,0,40.94,59.574ZM37,49H26V45H37Zm8-11.158A5.163,5.163,0,0,1,39.842,43H24.158A5.163,5.163,0,0,1,19,37.842V34.158a5.156,5.156,0,0,1,5-5.142,3,3,0,0,0,5.5,1.636,2.992,2.992,0,0,0,5,0A3,3,0,0,0,40,29.016a5.156,5.156,0,0,1,5,5.142Zm12,7.2a.954.954,0,0,1-1.748.529L48.531,35.493A4.5,4.5,0,0,0,50.078,34.2l4.048,7.286A1,1,0,0,0,56,41V28h1Zm4.6-33.3L59.191,23H53.809L51.4,11.746A.619.619,0,0,1,52,11h5.382l.723,1.447a1,1,0,0,0,1.6.26l1.616-1.616a.623.623,0,0,1,.281.655Z"/><circle cx="26.995" cy="36.995" r="1.005"/><circle cx="36.995" cy="36.995" r="1.005"/><circle cx="31.995" cy="36.995" r="1.005"/></g><text x="0" y="79" fill="#000000" font-size="5px" font-weight="bold" font-family="'Helvetica Neue', Helvetica, Arial-Unicode, Arial, Sans-serif">Created by VINZENCE STUDIO</text><text x="0" y="84" fill="#000000" font-size="5px" font-weight="bold" font-family="'Helvetica Neue', Helvetica, Arial-Unicode, Arial, Sans-serif">from the Noun Project</text></svg>